<?xml version="1.0" standalone="no"?>
<!DOCTYPE svg PUBLIC "-//W3C//DTD SVG 20010904//EN"
 "http://www.w3.org/TR/2001/REC-SVG-20010904/DTD/svg10.dtd">
<svg version="1.0" xmlns="http://www.w3.org/2000/svg"
 width="400.000000pt" height="400.000000pt" viewBox="0 0 400.000000 400.000000"
 preserveAspectRatio="xMidYMid meet">

<g transform="translate(0.000000,400.000000) scale(0.100000,-0.100000)"
fill="#000000" stroke="none">
<path d="M1454 2786 c-40 -18 -92 -82 -100 -124 -4 -22 -15 -37 -35 -48 -57
-29 -59 -42 -59 -399 0 -347 3 -370 50 -395 18 -10 20 -23 22 -188 l3 -177 45
0 45 0 3 174 c2 173 2 174 28 194 51 40 54 62 54 392 0 331 -4 357 -54 390
-14 10 -26 25 -26 35 0 28 37 68 75 80 29 9 41 8 78 -8 38 -17 49 -29 84 -98
23 -44 62 -125 87 -180 24 -56 77 -166 115 -244 39 -78 71 -146 71 -152 0 -6
-21 -45 -46 -85 -78 -125 -93 -214 -51 -294 63 -119 231 -118 295 1 20 37 23
55 19 106 -5 66 -21 103 -112 259 -33 55 -110 208 -172 340 -163 347 -173 365
-221 399 -34 24 -55 31 -105 33 -38 2 -74 -2 -93 -11z m573 -888 c41 -68 53
-101 53 -144 0 -39 -14 -72 -39 -91 -17 -13 -69 -17 -96 -7 -38 15 -57 101
-34 161 13 35 71 133 79 133 3 0 20 -24 37 -52z"/>
<path d="M2352 2779 c-24 -12 -54 -36 -67 -53 -13 -17 -80 -152 -149 -300
l-125 -268 21 -42 21 -41 71 145 c39 80 106 219 149 308 76 160 78 164 122
183 39 17 51 19 80 9 36 -12 75 -52 75 -77 0 -9 -12 -24 -26 -36 -51 -40 -54
-61 -54 -392 0 -330 3 -352 54 -392 26 -20 26 -21 28 -193 l3 -173 25 -4 c14
-2 35 -1 48 2 22 5 22 7 22 180 0 164 1 175 20 185 47 25 50 48 50 395 0 357
-2 370 -59 399 -17 9 -30 26 -34 43 -7 36 -44 91 -80 117 -42 31 -139 34 -195
5z"/>
<path d="M1334 1425 c-12 -31 4 -45 51 -45 43 0 45 1 45 30 0 29 -2 30 -45 30
-31 0 -47 -5 -51 -15z"/>
<path d="M2552 1413 c3 -26 6 -28 48 -28 41 0 45 2 45 25 0 23 -4 25 -48 28
-48 3 -48 3 -45 -25z"/>
<path d="M1330 1354 c0 -3 5 -15 11 -26 8 -14 8 -23 0 -31 -6 -6 -11 -17 -11
-25 0 -19 39 -72 53 -72 23 0 41 45 42 103 l2 57 -49 0 c-26 0 -48 -3 -48 -6z"/>
<path d="M2554 1300 c1 -48 6 -65 24 -82 l22 -23 25 30 c16 20 23 37 19 50 -8
28 -8 47 1 68 6 15 1 17 -42 17 l-50 0 1 -60z"/>
<path d="M2778 1099 c-42 -24 -1 -82 42 -59 25 14 26 46 1 60 -23 12 -22 12
-43 -1z"/>
<path d="M1531 973 c1 -65 4 -129 8 -143 8 -29 42 -49 75 -43 18 4 22 10 18
29 -2 13 -8 27 -13 30 -5 3 -9 59 -9 125 l0 119 -40 0 -40 0 1 -117z"/>
<path d="M930 900 l0 -110 35 0 34 0 3 71 c2 56 7 74 21 83 26 16 37 -8 37
-86 l0 -68 35 0 35 0 0 74 c0 58 3 75 16 80 28 11 34 -4 34 -80 l0 -75 38 3
37 3 0 87 c0 70 -4 90 -19 107 -22 24 -64 27 -91 7 -17 -12 -22 -12 -39 0 -27
19 -61 18 -91 -2 -23 -15 -25 -15 -25 0 0 11 -9 16 -30 16 l-30 0 0 -110z"/>
<path d="M1331 981 c-27 -26 -31 -35 -31 -83 0 -44 4 -59 24 -77 30 -28 72
-40 114 -30 43 9 46 13 32 38 -8 16 -17 20 -35 15 -31 -8 -65 4 -65 21 0 10
14 13 58 12 53 -2 57 0 60 22 14 96 -86 148 -157 82z m87 -33 c19 -19 14 -28
-18 -28 -41 0 -40 33 1 39 3 1 10 -4 17 -11z"/>
<path d="M1691 984 c-53 -44 -50 -142 4 -178 34 -22 97 -20 128 4 58 46 55
143 -6 180 -44 28 -89 25 -126 -6z m93 -50 c20 -51 -8 -110 -39 -84 -15 12
-21 81 -8 93 12 13 41 7 47 -9z"/>
<path d="M1904 997 c-3 -8 -3 -56 -2 -108 l3 -94 38 -3 37 -3 0 74 c0 59 3 76
16 81 28 11 34 -4 34 -80 l0 -74 35 0 35 0 0 69 c0 72 14 99 45 87 12 -4 15
-23 15 -81 l0 -75 36 0 36 0 -4 96 c-2 81 -6 98 -22 110 -26 19 -65 18 -88 -3
-17 -15 -19 -15 -36 0 -23 21 -61 22 -89 2 -19 -13 -22 -13 -27 0 -7 19 -55
20 -62 2z"/>
<path d="M2310 999 c-33 -13 -33 -14 -20 -38 9 -18 17 -21 45 -15 55 10 64 -8
12 -23 -58 -17 -85 -52 -71 -91 14 -40 50 -54 91 -37 18 8 33 10 33 4 0 -5 14
-9 30 -9 l30 0 0 85 c0 78 -2 88 -25 110 -26 27 -78 33 -125 14z m80 -134 c0
-9 -7 -18 -16 -22 -18 -7 -39 11 -30 26 11 17 46 13 46 -4z"/>
<path d="M2517 1003 c-4 -3 -7 -53 -7 -110 l0 -104 38 3 37 3 5 75 c4 67 7 75
25 75 18 0 20 -8 23 -78 l3 -78 37 3 37 3 -1 82 c-2 122 -33 156 -110 121 -22
-10 -28 -10 -32 0 -4 13 -44 17 -55 5z"/>
<path d="M2765 997 c-3 -7 -4 -56 -3 -108 l3 -94 38 -3 38 -3 -3 108 -3 108
-33 3 c-20 2 -34 -2 -37 -11z"/>
<path d="M2920 999 c-33 -13 -33 -14 -21 -37 9 -17 18 -19 51 -15 47 7 56 -12
10 -22 -69 -15 -104 -81 -62 -117 27 -24 44 -26 80 -12 17 7 32 9 32 3 0 -5
14 -9 30 -9 l30 0 0 85 c0 78 -2 88 -25 110 -26 27 -78 33 -125 14z m80 -133
c0 -18 -30 -30 -43 -17 -5 5 -6 14 -3 20 10 16 46 13 46 -3z"/>
</g>
</svg>
